<svg xmlns="http://www.w3.org/2000/svg" viewBox="0 0 389.99 151.69"><defs><style>.cls-1{fill:#fff;}.cls-2{fill:#231f20;}</style></defs><g id="Layer_2" data-name="Layer 2"><g id="Layer_1-2" data-name="Layer 1"><path class="cls-1" d="M126,138.87h0l.14-.25v-.21C126.09,138.55,126,138.71,126,138.87Z"/><path class="cls-2" d="M126.09,138.92l0,.05,0-.12A.68.68,0,0,1,126.09,138.92Z"/><path class="cls-1" d="M47.09,93.09h.12V93Zm60.84-62.92-.39.39c-.09.22-.18.41-.26.62l.46-.49c.1-.25.17-.41.21-.5v0ZM.44,113.3s0,.07,0,.09,0,0,0,0l0,0,.18-.07.07,0C.64,113.23.62,113.29.44,113.3ZM47.09,93.09h.12V93ZM74.3,71.18c.2.28.37.55.44.62h0ZM47.09,93.09h.12V93Z"/><path class="cls-2" d="M107.93,30.17l0,0v0Z"/><path class="cls-2" d="M74.76,71.8h0c-.07-.07-.24-.34-.44-.62Z"/><path class="cls-2" d="M74.76,71.8h0c-.07-.07-.24-.34-.44-.62Z"/><path class="cls-2" d="M47.21,93v.08h-.12Z"/><path class="cls-2" d="M146,102.47a56.28,56.28,0,0,0-1.2-7.14c-.46-2.06-.94-4.08-1.58-6.1V0h-119V91.43C22.07,93.64,20,96,18,98.25l-3.9,4.42A38,38,0,0,1,10,106.81a43.16,43.16,0,0,1-4.73,3.43c-.84.51-1.67,1-2.52,1.49l-1.29.69-.66.33-.32.16L.28,113,.19,113a.48.48,0,0,0-.19.21,1.45,1.45,0,0,0,.66.48l.56.18a7.55,7.55,0,0,0,1.16.17,19.36,19.36,0,0,0,2.28.13,38.5,38.5,0,0,0,4.56-.29,27,27,0,0,0,4.52-.83,8.31,8.31,0,0,0,2.22-.94,9.36,9.36,0,0,1,.9-.6c.3-.18.55-.25.64-.18s.48.39.83.6a4.49,4.49,0,0,0,1.19.52c.87.19,1.47.28,2.29.44a8.67,8.67,0,0,0,2.44,0v38.72h119V117.17l.27-.5a24.42,24.42,0,0,0,2.34-6.91A27.4,27.4,0,0,0,146,102.47ZM27.8,3.55H139.68V81.2a43,43,0,0,0-3.81-5.55A68.51,68.51,0,0,0,125.62,65.4a100.64,100.64,0,0,0-11.84-8.31,10.59,10.59,0,0,0-3.61-1.48h-.61a4.46,4.46,0,0,0-.67.14,2.15,2.15,0,0,0-1,1,5.64,5.64,0,0,0-.55,2,11.88,11.88,0,0,1-.26,1.63c0,.07-.06.14-.07.19l-.09,0a9.57,9.57,0,0,1-1.26-1,2.14,2.14,0,0,1-.46-.48,6.84,6.84,0,0,1-.32-.66c-.76-2.09-1.21-4.59-2.32-6.86a11.46,11.46,0,0,0-2.17-3.17,2.89,2.89,0,0,0-1.43-.85,12.78,12.78,0,0,1,.76-1.26c1.68-2.48,3.6-4.77,5.21-7.48,1.31-2.8,2.29-5.64,3.3-8.49l.32-.92-.69.67-3,3a24.9,24.9,0,0,0-2.78,3.12,15.33,15.33,0,0,1-3.41,2.16,4.56,4.56,0,0,1-1.72.59.72.72,0,0,1,.09-.34,4.17,4.17,0,0,1,.46-.82A26.17,26.17,0,0,0,103,27.21,13.39,13.39,0,0,1,105.1,22a21.53,21.53,0,0,1,4-4.08,19.55,19.55,0,0,0,2.14-2.13,5,5,0,0,0,1.33-3A3.54,3.54,0,0,0,111,9.82a9.85,9.85,0,0,0-2.84-1.38,5.28,5.28,0,0,0-3.24.5,19.45,19.45,0,0,0-2.68,1.4c-1.7,1.06-3.31,2.19-4.89,3.36-6.29,4.72-12.43,9.6-18.88,14-3.21,2.23-6.56,4.2-9.8,6.56a59.31,59.31,0,0,0-8.6,8.24A77.3,77.3,0,0,0,48.12,62.9c-.39.91-.77,1.84-1.19,2.64a2.62,2.62,0,0,1-.25.41,4.28,4.28,0,0,0-.6.64c-.32.41-.61.81-.89,1.22l-3.33,4.86a116.61,116.61,0,0,1-7,9.4,16.81,16.81,0,0,1-2,2.05,4.51,4.51,0,0,1-1.08.8c-.37.27-.92.5-1.29.82A27.29,27.29,0,0,0,27.8,88ZM24.25,111.74a7.92,7.92,0,0,1-2.28,0c-.68-.11-1.56-.21-2.17-.34a3.07,3.07,0,0,1-.9-.35,8.24,8.24,0,0,0-1-.66,1.68,1.68,0,0,0-1.51.29c-.35.21-.67.48-.95.67a6.89,6.89,0,0,1-1.94.87,26.45,26.45,0,0,1-4.34,1,33.74,33.74,0,0,1-4.49.4,18.47,18.47,0,0,1-2.23,0c-.37,0-.73-.09-1.08-.12L.8,113.3H.73l-.07,0-.18.07,0,0,0,0a.07.07,0,0,0,0,0s0-.07,0-.09c.18,0,.2-.07.29,0l.25-.13.67-.32L3,112.17c.87-.48,1.74-1,2.57-1.47a41.66,41.66,0,0,0,4.86-3.37,36.26,36.26,0,0,0,4.25-4.15l4-4.33c1.87-2,3.72-4,5.63-6l2.48-2.48,1.07-1a31.15,31.15,0,0,1,3.33-2.77c.39-.3.76-.44,1.19-.72A6,6,0,0,0,33.61,85a17.94,17.94,0,0,0,2.11-2.17,111.09,111.09,0,0,0,7.11-9.45l3.35-4.82c.29-.39.57-.8.85-1.15s.29-.32.39-.44a3.67,3.67,0,0,0,.61-.78c.48-.94.83-1.83,1.24-2.73a76.22,76.22,0,0,1,11.86-20,56.25,56.25,0,0,1,8.42-8c3.12-2.22,6.52-4.26,9.73-6.54,6.47-4.49,12.59-9.44,18.83-14.17,1.56-1.17,3.14-2.32,4.77-3.35a20.2,20.2,0,0,1,2.5-1.35,4.26,4.26,0,0,1,2.46-.44c1.63.51,3.66,1.56,3.6,3.12a4,4,0,0,1-1,2.29,20.39,20.39,0,0,1-2,2,23.36,23.36,0,0,0-4.16,4.31A14.77,14.77,0,0,0,102.05,27a26.75,26.75,0,0,1-5.22,10.18l0,0a4.92,4.92,0,0,0-.53,1,1.68,1.68,0,0,0-.15.65c0,.3.36.75.64.73A4.84,4.84,0,0,0,99,38.9a16.87,16.87,0,0,0,3.56-2.4,25.54,25.54,0,0,1,2.7-3.17l2.06-2.15c.08-.21.17-.4.26-.62l.21-.49.18.1h0v0l.18.11,0,0-.37.37-.46.49c-1,2.4-2,4.84-3.21,7.1-1.6,2.41-3.69,4.69-5.45,7.18a7.35,7.35,0,0,0-1.18,2.09c0,.05,0,.09,0,.14s0,0-.05.07l-.13.23-.28.46-.41.62-.19.3c-.62.93-1.26,1.85-1.92,2.77-.21.32-.44.62-.65.94L92.51,54.8l-4.08,5.58L85.68,64c-.46.59-.92,1.17-1.4,1.74a7.87,7.87,0,0,1-.64.69c-.23.23-.67.57-.9.82l-.71.67A5.06,5.06,0,0,0,80.72,67a8.05,8.05,0,0,0-1.93-.53,65.36,65.36,0,0,0-.2-6.7,25.29,25.29,0,0,0-1.72-7.25,10.44,10.44,0,0,0-4.93-5.73,9.93,9.93,0,0,0-7.37,0S69,46,71,47.14s3.61,3.85,4.34,6A25.49,25.49,0,0,1,76.55,60c.14,2.34,0,4.69.2,7v0c0,1.19-2.45,2.57-3.11,3.25a4.76,4.76,0,0,1,.55.76l-.56-.76c-2.68,1.89-5.32,3.88-7.93,5.88a22.44,22.44,0,0,0-4.87-1.93,19,19,0,0,0-5.75-.66,17.51,17.51,0,0,0-5.62,1.07,22,22,0,0,0-5,2.55c.39-.14,3.58-1.33,5.25-1.74a17.45,17.45,0,0,1,5.37-.64,17.69,17.69,0,0,1,5.25,1,15.56,15.56,0,0,1,3.55,1.73c-1.17.89-2.34,1.8-3.51,2.68C56,83.68,51.86,87.3,47.65,90.89l-.56.48V91.3a23.57,23.57,0,0,0-5.5.5c-1.81.32-3.62.69-5.41,1.13a41.36,41.36,0,0,0-8.38,3c-.62.31-1.24.64-1.85,1,.18-.05.93-.31,1.85-.63s2.34-.77,3.21-1a83.14,83.14,0,0,1,11-1.73c1-.09,1.9-.11,2.82-.18-1.13,1-2.25,2-3.37,3a39.87,39.87,0,0,1-6.47,5,60.62,60.62,0,0,1-7.16,4c-.92.46-2.25,1-3.55,1.53-1.89.76-3.7,1.43-4.06,1.57,1.49-.37,2.8-.7,4.06-1.08a34.22,34.22,0,0,0,3.55-1.27l.28-.13a61.6,61.6,0,0,0,7.36-3.9,40.8,40.8,0,0,0,6.74-4.94c1.61-1.39,3.26-2.75,4.91-4.12l.12-.09,1.31-1.08c4.28-3.47,8.55-7,12.95-10.28.37-.27.7-.53,1.08-.76-.62,1-1.28,2-2,2.92C59,86,55.19,89.88,55.19,89.88a27.62,27.62,0,0,0,6.15-5.47c1.88-2,3.35-4.31,5.25-6.46l0,0c2.74-2,5.47-4,8.13-6.13-.07-.07-.24-.34-.44-.62l.46.62h0a0,0,0,0,0,0,0c1.54-1.14,3.71-3.1,5.57-2.32l-4.17,4C71.8,77.63,67.42,81.78,63,85.82s-9,8-13.74,11.76c-2.37,1.84-4.75,3.67-7.23,5.33s-5.09,3.18-7.71,4.65a55.82,55.82,0,0,1-6.47,3.14c-.53.23-1.08.41-1.61.58A10.13,10.13,0,0,1,24.25,111.74Zm3.55,36.4V112.08A57.9,57.9,0,0,0,35,108.82c2.68-1.46,5.32-2.91,7.89-4.58s5-3.47,7.43-5.31c4.79-3.76,9.36-7.72,13.88-11.76s9-8.15,13.31-12.34l4.31-4.16C83.57,72.86,84,77,84.23,81.11c.3,4.54,1.51,46.91,2.07,67Zm64.28,0C90.31,127,86.83,85.4,86.41,79.46c-.36-4.72-1.49-8.14-3.12-10.27l.69-.65.78-.71a8.4,8.4,0,0,0,.9-1c.5-.6,1-1.18,1.42-1.79l2.73-3.65c.59-.8,1.17-1.59,1.74-2.41-.19,1.1-.32,2.22-.41,3.33a50.2,50.2,0,0,0,1.12,14.52,42.26,42.26,0,0,0,5.53,13.51c2.54,4.17,5.74,7.84,8.67,11.56a31.53,31.53,0,0,1,3.81,5.85,12.19,12.19,0,0,1,.64,1.54v.06c-.3,3.56-.6,6.47-.89,7.82-.76,3.61-4.62,19.73-7.32,30.95Zm52.78-38.54a21.41,21.41,0,0,1-1.63,5.51c-.16.39-.34.78-.53,1.17a48.43,48.43,0,0,1-3,5.2c-1.5,2.3-3.17,4.5-4.85,6.66-1.55,1.85-3,3.73-5.25,4.7a10.89,10.89,0,0,0-2.18,3c-.27.52-.61,1.08-.84,1.54a9.54,9.54,0,0,0-.42,1.07v.44a12,12,0,0,0,.78-1.21l.92-1.59a10.43,10.43,0,0,1,2.08-2.77c.42-.28,1-.48,1.56-.85a10.81,10.81,0,0,0,1.41-1.17,34.38,34.38,0,0,0,2.45-2.69c1.49-1.86,3-3.73,4.34-5.68v25.25H108.45c1.63-11.31,3.44-25.85,4.34-33.88l.11.21a10.89,10.89,0,0,0,2.3,3c1,.87,1.93,1.53,2.77,2.31a19.21,19.21,0,0,1,3.91,5.69,36,36,0,0,1,2.63,6.58,30.84,30.84,0,0,1,.8,3.45c.1.57.19,1.16.26,1.76l.07.87,0,.44,0,.23V139s0,0,0,.1a.34.34,0,0,0,.16.23c.09-.12.16-.24.25-.37s-.06,0-.09,0h0c.07-.16.13-.32.18-.46v-.23l0-.93c0-.6-.07-1.2-.14-1.8a27.17,27.17,0,0,0-.66-3.58A36.73,36.73,0,0,0,123,125a20.54,20.54,0,0,0-4-6.17c-.88-.9-1.89-1.61-2.69-2.39a9.83,9.83,0,0,1-1.92-2.69,20.38,20.38,0,0,1-1.13-3v0c.12-1.12.19-1.9.21-2.25.06-1,.14-3.67.25-7,.28-8.22.57-19.36,1-21.94.09-.52.2-.62.32-.61a153,153,0,0,1,8.92,16.7,74.21,74.21,0,0,1,3.37,8.9,32.29,32.29,0,0,1,1.82,9.38,27.18,27.18,0,0,0-1.06-9.59,67.53,67.53,0,0,0-3.07-9.13,128.32,128.32,0,0,0-6-12.3c-1.08-2-3.12-5.27-3-6.24a46.64,46.64,0,0,0-.2-6.33,47.1,47.1,0,0,0-.81-4.7,7.89,7.89,0,0,0-1.44-3.21,11.46,11.46,0,0,1,1,3.32,34.88,34.88,0,0,1,.42,3.54,22.38,22.38,0,0,1-.28,5.87c-.18.6-1-.14-1.83-.71a52,52,0,0,1-5.37-4c-3.42-2.94-6.13-5.69-6.45-6a35.93,35.93,0,0,0,5.26,6.4,49.4,49.4,0,0,0,7.26,5.78c-.5,1.7-.71,6.75-.86,8-.08.94-.7,12.06-1.4,21.22a37.89,37.89,0,0,0-3.33-5c-3-3.83-6-7.45-8.53-11.43-5.07-7.93-7-17.59-6.45-26.95a33,33,0,0,1,1.19-6.88,3,3,0,0,1,.12-.36c.29-.4.57-.83.85-1.25.85-1.26,1.69-2.52,2.5-3.82l.59-1,0,0a.07.07,0,0,1,.06,0,1.05,1.05,0,0,1,.92.41A10.19,10.19,0,0,1,101,52.21c1,2.06,1.42,4.33,2.29,6.74a5.65,5.65,0,0,0,.48.95,3.61,3.61,0,0,0,.76.82,9.62,9.62,0,0,0,1.56,1.21,1.66,1.66,0,0,0,1.61.12,1.9,1.9,0,0,0,.89-1.21,12,12,0,0,0,.33-1.91,4.33,4.33,0,0,1,.34-1.42c.16-.26.25-.32.73-.28a9.81,9.81,0,0,1,3,1.24,104.63,104.63,0,0,1,11.72,8.08c5.93,4.83,11.47,10.53,15,17.31a36,36,0,0,1,2.1,4.85c.56,1.67,1,3.39,1.45,5.13.14.58.28,1.17.42,1.73a55.16,55.16,0,0,1,1.26,7A25.78,25.78,0,0,1,144.86,109.6Z"/><path class="cls-2" d="M209.36,25.63v44h-4.47V34.5l-15.7,35.17h-3.25l-15.71-35v35h-4.46v-44h4.72l17,38.17,17.05-38.17Z"/><path class="cls-2" d="M228.05,67.21a20.8,20.8,0,0,1-8-8.11,23.67,23.67,0,0,1-2.91-11.77,23.73,23.73,0,0,1,2.91-11.78,20.87,20.87,0,0,1,8-8.11,23.33,23.33,0,0,1,22.53,0,20.7,20.7,0,0,1,7.91,8.11,23.92,23.92,0,0,1,2.87,11.78,23.86,23.86,0,0,1-2.87,11.77,20.64,20.64,0,0,1-7.91,8.11,23.26,23.26,0,0,1-22.53,0Zm20.17-3.29a16.33,16.33,0,0,0,6.25-6.6,20.92,20.92,0,0,0,2.3-10,20.75,20.75,0,0,0-2.3-10,16.37,16.37,0,0,0-6.25-6.57,18.52,18.52,0,0,0-17.88,0,16.31,16.31,0,0,0-6.25,6.57,20.75,20.75,0,0,0-2.3,10,20.92,20.92,0,0,0,2.3,10,16.26,16.26,0,0,0,6.25,6.6,18.52,18.52,0,0,0,17.88,0Z"/><path class="cls-2" d="M277.86,67.21a20.94,20.94,0,0,1-7.95-8.11A23.66,23.66,0,0,1,267,47.33a23.73,23.73,0,0,1,2.9-11.78,21,21,0,0,1,7.95-8.11,23.33,23.33,0,0,1,22.53,0,20.8,20.8,0,0,1,7.92,8.11,24,24,0,0,1,2.87,11.78,24,24,0,0,1-2.87,11.77,20.73,20.73,0,0,1-7.92,8.11,23.26,23.26,0,0,1-22.53,0ZM298,63.92a16.26,16.26,0,0,0,6.25-6.6,20.81,20.81,0,0,0,2.3-10,20.63,20.63,0,0,0-2.3-10A16.31,16.31,0,0,0,298,30.8a18.51,18.51,0,0,0-17.87,0,16.33,16.33,0,0,0-6.26,6.57,20.75,20.75,0,0,0-2.3,10,20.92,20.92,0,0,0,2.3,10,16.29,16.29,0,0,0,6.26,6.6,18.51,18.51,0,0,0,17.87,0Z"/><path class="cls-2" d="M345,27.73a18.68,18.68,0,0,1,8.1,7.73,24.31,24.31,0,0,1,2.81,12,24,24,0,0,1-2.81,11.9A18.59,18.59,0,0,1,345,67a28.12,28.12,0,0,1-12.71,2.65H319V25.05h13.21A28,28,0,0,1,345,27.73Zm1.5,33.35q4.88-4.87,4.88-13.62T346.46,33.7q-4.89-5-14.21-5h-8.74V66h8.74Q341.58,66,346.46,61.08Z"/><path class="cls-2" d="M390,25.05l-14.3,27.26V69.67h-4.47V52.31L356.8,25.05h5l11.62,23.17L385,25.05Z"/><path class="cls-2" d="M190,106.88q-3.76,3.51-11.29,3.51h-9v19h-4.47V84.79h13.47q7.47,0,11.26,3.52a12.08,12.08,0,0,1,3.8,9.31A12.07,12.07,0,0,1,190,106.88Zm-.83-9.26c0-3-.82-5.23-2.49-6.76s-4.31-2.3-8-2.3h-9v18h9Q189.2,106.56,189.2,97.62Z"/><path class="cls-2" d="M204.52,125.77h16v3.64H200.05V84.79h4.47Z"/><path class="cls-2" d="M253.78,118.82h-20.3l-3.89,10.59h-4.73l16.28-44h5l16.22,44h-4.73Zm-1.34-3.71L243.63,91l-8.81,24.12Z"/><path class="cls-2" d="M302.13,129.41h-4.47L273,91.88v37.53h-4.47V84.79H273l24.7,37.47V84.79h4.47Z"/><path class="cls-2" d="M337.47,84.79V88.5H325.08v40.91h-4.46V88.5H308.17V84.79Z"/><path class="cls-2" d="M348.71,128.33a12.64,12.64,0,0,1-5.26-4.28,11.25,11.25,0,0,1-2.05-6.13h4.73a9,9,0,0,0,2.87,5.72q2.55,2.44,7.47,2.45a10.46,10.46,0,0,0,7.18-2.33,7.53,7.53,0,0,0,2.65-5.9,7,7,0,0,0-1.47-4.63,9,9,0,0,0-3.64-2.62,57.91,57.91,0,0,0-6-1.88,53.15,53.15,0,0,1-7.08-2.36,11.24,11.24,0,0,1-4.47-3.58,10.51,10.51,0,0,1-1.85-6.57,11,11,0,0,1,1.78-6.16,12,12,0,0,1,5.05-4.24,17.22,17.22,0,0,1,7.47-1.54q6.18,0,10,3a11.38,11.38,0,0,1,4.38,7.82H365.6a8.07,8.07,0,0,0-3-4.89,11.87,11.87,0,0,0-13.6,0,7.06,7.06,0,0,0-2.68,5.84,6.73,6.73,0,0,0,1.47,4.53,9.29,9.29,0,0,0,3.67,2.62,52.68,52.68,0,0,0,6,1.92,54.07,54.07,0,0,1,7,2.39,11.53,11.53,0,0,1,4.53,3.61,10.47,10.47,0,0,1,1.85,6.51,11.44,11.44,0,0,1-1.66,5.93,12,12,0,0,1-4.91,4.53,16.44,16.44,0,0,1-7.79,1.73A18.53,18.53,0,0,1,348.71,128.33Z"/><path class="cls-2" d="M378.36,128.77a3.24,3.24,0,0,1-.92-2.36,3.15,3.15,0,0,1,3.25-3.25,3.12,3.12,0,0,1,2.27.92,3.2,3.2,0,0,1,.92,2.33,3.28,3.28,0,0,1-.92,2.36,3,3,0,0,1-2.27,1A3.1,3.1,0,0,1,378.36,128.77Z"/></g></g></svg>